<?xml version="1.0" encoding="UTF-8" standalone="no"?>
<!-- Created with Inkscape (http://www.inkscape.org/) -->

<svg
   xmlns:dc="http://purl.org/dc/elements/1.1/"
   xmlns:cc="http://creativecommons.org/ns#"
   xmlns:rdf="http://www.w3.org/1999/02/22-rdf-syntax-ns#"
   xmlns:svg="http://www.w3.org/2000/svg"
   xmlns="http://www.w3.org/2000/svg"
   xmlns:sodipodi="http://sodipodi.sourceforge.net/DTD/sodipodi-0.dtd"
   xmlns:inkscape="http://www.inkscape.org/namespaces/inkscape"
   width="19.794001mm"
   height="18.447001mm"
   viewBox="0 0 19.794001 18.447001"
   version="1.1"
   id="svg8"
   inkscape:version="0.92.5 (2060ec1f9f, 2020-04-08)"
   sodipodi:docname="dibujo.svg">
  <defs
     id="defs2" />
  <sodipodi:namedview
     id="base"
     pagecolor="#ffffff"
     bordercolor="#666666"
     borderopacity="1.0"
     inkscape:pageopacity="0.0"
     inkscape:pageshadow="2"
     inkscape:zoom="1.1375"
     inkscape:cx="-76.924322"
     inkscape:cy="142.3677"
     inkscape:document-units="mm"
     inkscape:current-layer="layer1"
     showgrid="false"
     inkscape:window-width="1920"
     inkscape:window-height="1016"
     inkscape:window-x="0"
     inkscape:window-y="27"
     inkscape:window-maximized="1"
     fit-margin-top="0"
     fit-margin-left="0"
     fit-margin-right="0"
     fit-margin-bottom="0" />
  <metadata
     id="metadata5">
    <rdf:RDF>
      <cc:Work
         rdf:about="">
        <dc:format>image/svg+xml</dc:format>
        <dc:type
           rdf:resource="http://purl.org/dc/dcmitype/StillImage" />
        <dc:title></dc:title>
      </cc:Work>
    </rdf:RDF>
  </metadata>
  <g
     inkscape:label="Capa 1"
     inkscape:groupmode="layer"
     id="layer1"
     transform="translate(-85.83,-87.342)">
    <g
       id="g825">
      <g
         word-spacing="normal"
         letter-spacing="normal"
         font-size-adjust="none"
         font-stretch="normal"
         font-weight="normal"
         font-variant="normal"
         font-style="normal"
         stroke-miterlimit="10.433"
         xml:space="preserve"
         transform="matrix(0.3,0,0,-0.3,-52.5,222.75)"
         id="content"
         style="font-style:normal;font-variant:normal;font-weight:normal;font-stretch:normal;letter-spacing:normal;word-spacing:normal;text-anchor:start;fill:none;fill-opacity:1;fill-rule:evenodd;stroke:#000000;stroke-linecap:butt;stroke-linejoin:miter;stroke-miterlimit:10.43299961;stroke-dasharray:none;stroke-dashoffset:0;stroke-opacity:1"><path
           id="path818"
           d="m 503.5,451.24 h -2.7 l -20.62,-53.11 h -0.19 l -10.17,26.72 h -0.94 l -7.78,-6.19 0.59,-1 c 1.11,1 2.39,1.55 3.25,1.55 1.24,0 2.24,-0.69 3.08,-2.94 l 10.06,-26.4 h 1.6 z"
           inkscape:connector-curvature="0"
           style="fill:#000000;stroke-width:0" /><polyline
           id="polyline820"
           points="502,448 527.08,448 527.08,451.36 502,451.36 "
           style="fill:#000000;fill-rule:nonzero;stroke-width:0" /><path
           id="path822"
           d="m 525.35,427.53 h -3.98 l -0.45,-1.66 h -0.05 c -0.09,1.11 -1.14,2.3 -3.28,2.3 l 0.05,-1.44 c 1.89,0 2.48,-1.5 2.48,-3.55 v 0 c 0,-1.68 -0.34,-3.68 -0.75,-4.98 -1.39,-4.72 -4.87,-9.45 -8.31,-9.45 -1.35,0 -2.89,0.64 -2.89,3.28 0,1.75 0.5,3.93 1.39,6.17 1.7,4.19 4.69,8.53 8.08,8.53 l -0.05,1.44 c -7.19,0 -13.75,-9.97 -13.75,-16.53 0,-3.21 1.28,-5.94 4.42,-5.94 1.95,0 5.03,0.66 8.63,5.23 h 0.2 c -0.25,-0.79 -0.55,-1.84 -0.55,-2.5 0,-1.59 0.44,-2.73 2.1,-2.73 2.39,0 5.08,2.98 6.62,5.33 l -0.61,0.61 c -1.93,-2.6 -2.68,-2.71 -3.18,-2.71 -0.4,0 -0.69,0.32 -0.69,0.86 0,0.44 0.04,0.55 0.04,0.55 z"
           inkscape:connector-curvature="0"
           style="fill:#000000;stroke-width:0" /></g>    </g>
  </g>
</svg>
